PathFileType	4	(X/Y/Z)	Kaydara	
DataRate	CameraRate	NumFrames	NumMarkers	Units	OrigDataRate	OrigDataStartFrame	OrigNumFrames	
240.00	240.00	4	72	mm	240.00	178	355	
Frame#	Time	Hips			RightUpLeg			RightLeg			RightFoot			RightFoot_End			LeftUpLeg			LeftLeg			LeftFoot			LeftFoot_End			Spine			Spine1			Spine2			Spine3			Neck			Head			Head_End			RightShoulder			RightArm			RightForeArm			RightHand			RightHandThumb1			RightHandThumb2			RightHandThumb3			RightHandThumb3_End			RightInHandIndex			RightHandIndex1			RightHandIndex2			RightHandIndex3			RightHandIndex3_End			RightInHandMiddle			RightHandMiddle1			RightHandMiddle2			RightHandMiddle3			RightHandMiddle3_End			RightInHandRing			RightHandRing1			RightHandRing2			RightHandRing3			RightHandRing3_End			RightInHandPinky			RightHandPinky1			RightHandPinky2			RightHandPinky3			RightHandPinky3_End			LeftShoulder			LeftArm			LeftForeArm			LeftHand			LeftHandThumb1			LeftHandThumb2			LeftHandThumb3			LeftHandThumb3_End			LeftInHandIndex			LeftHandIndex1			LeftHandIndex2			LeftHandIndex3			LeftHandIndex3_End			LeftInHandMiddle			LeftHandMiddle1			LeftHandMiddle2			LeftHandMiddle3			LeftHandMiddle3_End			LeftInHandRing			LeftHandRing1			LeftHandRing2			LeftHandRing3			LeftHandRing3_End			LeftInHandPinky			LeftHandPinky1			LeftHandPinky2			LeftHandPinky3			LeftHandPinky3_End			
		X1	Y1	Z1	X2	Y2	Z2	X3	Y3	Z3	X4	Y4	Z4	X5	Y5	Z5	X6	Y6	Z6	X7	Y7	Z7	X8	Y8	Z8	X9	Y9	Z9	X10	Y10	Z10	X11	Y11	Z11	X12	Y12	Z12	X13	Y13	Z13	X14	Y14	Z14	X15	Y15	Z15	X16	Y16	Z16	X17	Y17	Z17	X18	Y18	Z18	X19	Y19	Z19	X20	Y20	Z20	X21	Y21	Z21	X22	Y22	Z22	X23	Y23	Z23	X24	Y24	Z24	X25	Y25	Z25	X26	Y26	Z26	X27	Y27	Z27	X28	Y28	Z28	X29	Y29	Z29	X30	Y30	Z30	X31	Y31	Z31	X32	Y32	Z32	X33	Y33	Z33	X34	Y34	Z34	X35	Y35	Z35	X36	Y36	Z36	X37	Y37	Z37	X38	Y38	Z38	X39	Y39	Z39	X40	Y40	Z40	X41	Y41	Z41	X42	Y42	Z42	X43	Y43	Z43	X44	Y44	Z44	X45	Y45	Z45	X46	Y46	Z46	X47	Y47	Z47	X48	Y48	Z48	X49	Y49	Z49	X50	Y50	Z50	X51	Y51	Z51	X52	Y52	Z52	X53	Y53	Z53	X54	Y54	Z54	X55	Y55	Z55	X56	Y56	Z56	X57	Y57	Z57	X58	Y58	Z58	X59	Y59	Z59	X60	Y60	Z60	X61	Y61	Z61	X62	Y62	Z62	X63	Y63	Z63	X64	Y64	Z64	X65	Y65	Z65	X66	Y66	Z66	X67	Y67	Z67	X68	Y68	Z68	X69	Y69	Z69	X70	Y70	Z70	X71	Y71	Z71	X72	Y72	Z72	

178	0.738	2921.0129	906.651	56.2195	2970.927904893545	879.8475613040488	-6.355078774592753	2893.943442767794	475.3354373842267	-78.89617599461558	2927.5659640829226	102.92836273997277	-172.34094280678343	2853.3924077624447	25.23471286443826	-14.266864270896635	2878.8239037635603	904.718354304224	130.48639555000074	2820.7265197398247	502.35299094657387	230.78927907222223	2760.8256286474752	71.54657586323177	294.8110593896915	2633.6296579251616	-9.354804906650564	177.75447668335394	2884.741383399808	1035.310398882137	5.6586090432271545	2836.514947164997	1105.1202305714467	-41.0850899371547	2781.073534568686	1172.3796617872008	-91.49963524892638	2720.5801293186055	1227.4442385726784	-142.5609533404261	2655.353240791511	1286.2076149324773	-196.44099319907326	2594.8914660550363	1339.6487952513346	-244.49919046625075	2473.5250423666407	1431.8729422344786	-290.1642403086444	2691.4198001376444	1262.5572717459938	-199.62952426476215	2726.9762089959786	1241.9520012637743	-293.6371251688782	2731.300379934582	1014.6766287832447	-256.44061674290134	2748.6695905331794	863.0125994554512	-312.5831636448579	2755.304402976577	864.821080991173	-327.1891733986324	2748.0689447576465	860.0049095523087	-338.0465276266917	2742.7466140233605	854.0957236998713	-344.44144347069164	2738.0670376968733	846.983584224488	-348.7750043970862	2756.3379157060326	855.6216423994165	-324.58122512837355	2760.763074932128	835.7392496916257	-337.58641456528363	2756.1439827656554	823.001550672365	-345.39597040199465	2748.9341392992515	819.3097314394639	-349.510877876888	2740.0403357122946	819.1053974191731	-352.4174317282162	2755.046738185499	849.4161438643094	-320.89786641279784	2758.66670426193	826.6665815129561	-331.5907613207994	2753.4320144465746	812.0142802512836	-339.58279570330876	2744.6403337736174	807.1989352926845	-344.29306743570476	2734.863556488153	806.7997185874441	-347.3497813466469	2754.0987964119627	845.5075094241633	-317.97126555852486	2756.7459864114358	821.6333045438433	-325.0358633845344	2751.9782224283026	808.1289275435697	-331.44336070582784	2743.3889697816735	803.0946940723593	-335.6902503559754	2734.1446882266896	802.5347783576998	-338.42381060367586	2752.2699029549976	841.8292291504328	-314.1618414696043	2753.830848627537	817.551133507113	-318.32253154473017	2749.6807635885884	805.6975294690378	-322.551404021182	2743.2550127764216	801.5225517993824	-325.2127703196023	2734.9735870965883	800.7370828464517	-327.3831436026904	2662.406401512758	1271.560754296631	-156.23313252250642	2627.2865037860693	1242.2212449887402	-64.31265681842366	2709.106392368818	1050.8874209622336	-155.68307265139754	2781.2120693244483	892.2931590706683	-232.99146736682977	2769.271132692593	896.5132017129373	-248.66290456808272	2765.2072292452967	883.7250410073896	-270.5264009188655	2762.8759997781185	872.0874450163714	-285.30607032991907	2761.3593295991404	860.0486123155656	-297.2456456051338	2769.1174151259047	887.9466159095815	-247.9930561862215	2756.1499307158883	867.5351224929258	-271.4686715173577	2751.647381318432	848.8470707141335	-290.52238932180694	2751.9298840818074	838.5768716377526	-302.40118368774307	2754.2424378841583	830.9856022574501	-312.2555849897104	2771.1405326547297	881.0135838445118	-246.0918803714986	2759.585453977082	857.3560256653977	-267.96017061589407	2754.986930534604	836.1094571121514	-288.4279554588458	2755.4787663554007	823.3089422926937	-302.6039918810841	2758.08252705944	814.8034547054879	-313.31099822428587	2772.8555432542134	876.6598759597558	-244.12380718546643	2763.8563055644254	851.7477089999684	-261.93815053706066	2760.1885373565688	832.3930727095184	-279.4130085927102	2760.8436877362797	819.6019723298555	-292.89311661950956	2763.377532055137	811.3942797837681	-302.86856265070617	2775.5641829206015	872.0473598856601	-241.3788845531733	2768.8240369575005	846.4270983000615	-255.94675531357345	2766.4575453808375	829.7327569820983	-269.2931344929067	2767.211390694532	819.8244002635622	-278.81268131975304	2769.6147957586286	812.220794268786	-287.4692274289964
179	0.742	2921.0129	906.651	56.2195	2970.5458103080423	879.6733492063515	-6.5024255869475525	2893.5868384330593	475.1022868541435	-78.72769322082618	2927.8019751253273	102.83904877847817	-172.39120150574777	2853.6370363252445	25.123726303085387	-14.324115500812914	2879.192756707286	904.8915577179329	130.63984103892494	2821.211323241089	502.5519335490508	231.1097493245532	2761.0508024711917	71.75856438360952	294.91835165876614	2633.9384278776465	-9.226766905694543	177.83495113883288	2884.810096362412	1035.3206948424706	5.637878129212001	2836.557603661752	1105.1513545272946	-41.05004039297879	2781.07500180436	1172.4360614539612	-91.38414236247743	2720.5154049972957	1227.5260920367562	-142.32972324012403	2655.218164510591	1286.3131196993095	-196.08750987907402	2594.698312261111	1339.7793196555676	-244.03234210214055	2473.3025994975314	1431.9901694059135	-289.62115082936896	2691.1481709985023	1262.5249680312847	-199.33855969156022	2726.2882769884955	1241.6731976031658	-293.013562369086	2730.77476178053	1015.0545745304689	-254.83684602147625	2748.9045686953696	863.2219671712085	-309.50781731512177	2755.5481035192006	865.1800430305906	-324.1467904878643	2748.3497307378943	860.3841660649472	-334.9427111915014	2743.0436089245436	854.4798189701708	-341.2851030882429	2738.3693193814975	847.3637609521817	-345.56654287509133	2756.5417402936446	855.9736594208728	-321.5137238013616	2760.9104813256777	836.2200131858965	-334.46540315237405	2756.2852591551546	823.5043389771763	-342.2015061535098	2749.1020023544424	819.7867062543444	-346.26295627778944	2740.25070843135	819.534357962367	-349.12000878329985	2755.2279439766257	849.7351873956115	-317.80401022253614	2758.780639328336	827.0933834912688	-328.43046757620516	2753.536500366372	812.460264372203	-336.3390001093927	2744.7755709947332	807.6114473354156	-340.9831707217214	2735.0446633038932	807.1585614071204	-343.98494000885853	2754.2650522909985	845.800622419259	-314.86044729289586	2756.8377744447243	822.0023865798922	-321.8516390034159	2752.059064286807	808.5095914708616	-328.1830339818637	2743.49803463213	803.4403438296965	-332.3644000620527	2734.2961992464843	802.8286727724002	-335.0454621338256	2752.4237961970266	842.0835991070721	-311.03071353600984	2753.9074229179346	817.853522386552	-315.11252160653856	2749.7446719847367	806.0008418183545	-319.2755904378239	2743.3376196831478	801.7962845654945	-321.8868101225487	2735.0927094874414	800.9626448243257	-324.00932439439157	2662.4643695744826	1271.7928758831436	-155.9027075357275	2627.8247866896377	1242.9364921103515	-64.01259461881068	2709.3376196837485	1051.5058941684783	-154.77642471577906	2780.793597185433	893.2792871894945	-230.99726823599553	2769.006179029047	897.6628250155009	-246.6196750665486	2765.0295837327376	884.9799580963611	-268.3412815133356	2762.7525677185595	873.4127466997286	-283.0211723566236	2761.275458389947	861.4300731611481	-294.8767389474693	2768.8501597776735	889.108587746249	-245.95014035727826	2756.0580473366936	868.9207190785463	-269.3118687149629	2751.638939369184	850.3461074308011	-288.2421226949668	2751.943888032331	840.108325806849	-300.02951859687875	2754.2551687096893	832.5181830871832	-309.7983933364195	2770.847422675107	882.1577643436318	-244.048197316455	2759.449422092257	858.7087106395852	-265.8050038376726	2754.937921960625	837.5828026732302	-286.13827936737346	2755.4549042310687	824.819898555785	-300.20414883099386	2758.0563323989722	816.3149139018242	-310.81762355264607	2772.540075180948	877.786233117165	-242.0829094434574	2763.663326553194	853.0467838491497	-259.8009866200283	2760.067037898712	833.7937871413963	-277.15899512476716	2760.744123482775	821.0370908812929	-290.53304508690155	2763.2746749618223	812.8289836627222	-300.4206445755016	2775.2148424322604	873.1431241073977	-239.34118780377622	2768.5675035428612	847.6640108975728	-253.82411067035332	2766.2508975439823	831.0447982092994	-267.0779433971333	2767.0171852720637	821.1585070796948	-276.5206256722573	2769.41562615773	813.5527906292373	-285.099638796009
180	0.746	2921.0129	906.651	56.2195	2970.184570271836	879.5118883883425	-6.626240141824372	2893.2639966835745	474.87738833548815	-78.52857672316124	2928.044504527353	102.75833182479865	-172.41142953896505	2853.889032993711	25.01892955923518	-14.352113428177738	2879.539905703992	905.0518050902582	130.76980487673973	2821.6624978862756	502.7435536914944	231.42382418350533	2761.233951602029	71.95711208598468	294.9946666484351	2634.2057485852793	-9.114527974680266	177.88542118513587	2884.8821534232547	1035.3315360624977	5.616109468370342	2836.602286891107	1105.1839653519846	-41.013225301954755	2781.0737676084927	1172.494137059096	-91.26175933157889	2720.4364958473016	1227.6076310117785	-142.08181185392434	2655.0571232917987	1286.4160018804826	-195.7073717775709	2594.4686166342126	1339.9051582135266	-243.52951621307355	2473.038707918187	1432.1034112922684	-289.0300406748295	2690.8450591966166	1262.4759093897285	-199.0379994449124	2725.6215969920304	1241.4467666277549	-292.3512007247409	2730.2338892570897	1015.4869583644133	-253.2315705936225	2748.5917492874614	863.8966819280658	-306.81223691637035	2755.250825511418	866.0112408788544	-321.4713301465631	2748.0983457815128	861.2452753298857	-332.2039565710997	2742.81481189198	855.3529713249405	-338.49419050737447	2738.151336884778	848.2394346384506	-342.72523539483194	2756.2061000578856	856.8003905542977	-318.8171599998767	2760.532029473011	837.1915640814664	-331.71130780761246	2755.9100987556976	824.5089488526609	-339.37523817406054	2748.7580044076826	820.7706194287521	-343.3852243200304	2739.9521432217753	820.4733156445611	-346.19523319823077	2754.869876209923	850.529757222762	-315.0859449086251	2758.368675457833	828.0118290862015	-325.64466637568415	2753.1253493207205	813.4099871787414	-333.47175250152907	2744.4006828519196	808.5338976973497	-338.05254296084377	2734.7188386741936	808.0307025073232	-341.0022103977324	2753.891827065424	846.569433815623	-312.1289202805679	2756.4019020079036	822.8617837916914	-319.04848871328534	2751.621149360054	809.3911435097832	-325.30624851598014	2743.0936375739157	804.2928776983598	-329.425074517107	2733.9372412591	803.6326182267815	-332.0564809945747	2752.037537477726	842.8133362817256	-308.2832744704551	2753.4542940321876	818.6445130038279	-312.29044050439114	2749.2858920232875	806.8012063283376	-316.39072760277065	2742.9013447937236	802.5714353394309	-318.9544828713071	2734.6955693315213	801.6924258638537	-321.0319475149314	2662.510650190065	1272.0388408744066	-155.53496636328524	2628.3294811554147	1243.6372897779097	-63.702635862947616	2709.4311479294033	1052.0616599445482	-153.928594365526	2779.8646316733007	894.0874271757173	-229.3152633448916	2768.233304768647	898.6384575916179	-244.88969540237406	2764.3471647082206	886.0629745673023	-266.47057940686926	2762.126301623701	874.5675001934753	-281.0515336688314	2760.690153975954	862.6420240763632	-292.8238177890865	2768.074212880997	890.0967943084344	-244.22069108550406	2755.459733978944	870.1376178986474	-267.470504858033	2751.1261890287424	851.6787379864924	-286.278571655615	2751.455232981392	841.4738117789285	-297.97513361558475	2753.7668288039176	833.8844930384081	-307.6587948233005	2770.0448822036424	883.1276621193261	-242.31798533244813	2758.80576577815	859.8917761710188	-263.9652342543193	2754.3834997097997	838.8889426836759	-284.1653875922745	2754.92756824358	826.1641366143959	-298.12176829314336	2757.528377618685	817.6593033748134	-308.64205254143843	2771.7145899163684	878.7378252785301	-240.35543699799513	2762.9614199724765	854.1748921442409	-257.97893903768176	2759.438428522738	835.0255434743099	-275.22129793615505	2760.139262540665	822.3036708637732	-288.4899393269884	2762.668104919686	814.0947941877353	-298.29001050922477	2774.3547963728065	874.0633199690723	-237.6167942426429	2767.80081801332	848.728388023622	-252.01625084659992	2765.535377560821	832.185746547435	-265.17847638412275	2766.3153457584845	822.3217463164536	-274.54475742225486	2768.710176510882	814.7135593894606	-283.0465133812783
181	0.75	2921.0129	906.651	56.2195	2969.849327573673	879.3674244215897	-6.718887874700626	2892.9831802632834	474.66620034705386	-78.30029152224282	2928.2990216380917	102.69166154803216	-172.40485604957644	2854.154441574851	24.924641899018543	-14.354361757813203	2879.8599879473168	905.1947269996642	130.86849884140022	2822.0717487970246	502.9236562196145	231.7226351006945	2761.370630384123	72.13863714646607	295.0353379763549	2634.4269644032993	-9.021788159259216	177.90153552409387	2884.9584388117437	1035.3433562707332	5.5937331306914535	2836.6513691564382	1105.219799963159	-40.97369595057903	2781.0735176470857	1172.5569908418195	-91.131099083895	2720.3478682511472	1227.693326430957	-141.81541327686801	2654.8753475155054	1286.5221282656257	-195.2983171242987	2594.208290061074	1340.0334214374188	-242.9880579356471	2472.7382658610672	1432.2196918841546	-288.3861609035802	2690.516312582156	1262.4157915717908	-198.72610481680738	2724.979573072718	1241.2745870740566	-291.6549993627406	2729.654824869149	1015.9744950419765	-251.67151389749412	2747.5938291302296	865.1418586018332	-304.6339414764608	2754.277265991318	867.4220715519932	-319.2963887391541	2747.1817481473445	862.6989420816869	-329.963489136003	2741.9289104421496	856.8283945692717	-336.20219172172716	2737.283351325268	849.726086755954	-340.3852292821704	2755.196494467853	858.2101896037758	-316.6263816228623	2759.4977924842965	838.7679236775356	-329.4578991755164	2754.891408809651	826.1332901796405	-337.05151912602724	2747.7761425642548	822.381160533382	-341.01278832507876	2739.01908595257	822.043002825886	-343.77909932794694	2753.8382787840596	851.9085664438021	-312.88003084978146	2757.3011496396875	829.5363537573204	-323.3694851329397	2752.0720078816644	814.982156139236	-331.1180201916148	2743.3904389720165	810.0871549041898	-335.639158972571	2733.761347197862	809.538158308156	-338.5405867477365	2752.844925935692	847.9227690122806	-309.9141307371231	2755.3083599737156	824.325556220983	-316.76456216319605	2750.537188881753	810.8913877567938	-322.95209576713563	2742.0497713193645	805.7721951596652	-327.01244834813247	2732.9422749945343	805.0675986258474	-329.5980531423681	2750.976827214344	844.1272072693358	-306.0583345921533	2752.340956662238	820.0376489050013	-309.99654966462344	2748.176094113344	808.2151739179013	-314.0381552885701	2741.8187920370583	803.9660879151719	-316.55807528142765	2733.6551842920485	803.0454728923589	-318.5942858031592	2662.5493202754997	1272.3037505594389	-155.12737817256175	2628.799325379138	1244.3213243037574	-63.386971427005	2709.3951135927696	1052.5517016077338	-153.13087547691214	2778.375304624444	894.6877675856304	-227.9714798187124	2766.8955043596093	899.4066924859684	-243.49572278574342	2763.099765325798	886.93720692213	-264.93433207368275	2760.9356215356843	875.5121522008591	-279.4150723044349	2759.5414240543946	863.6424732597492	-291.1028405151936	2766.734756814793	890.8764399143106	-242.82616028352413	2754.2967649897373	871.1432076383045	-265.9590572288175	2750.049742256137	852.7978054310144	-284.642412913964	2750.4040389624793	842.624645935439	-296.2476454035345	2752.717286666538	835.0354613983776	-305.84640750398484	2768.6805983652753	883.8881194616697	-240.92237611723132	2757.600202650668	860.8622454242382	-262.4550171552868	2753.2684559801223	839.9799187661176	-282.51926978176334	2753.8411217569424	827.2918460363164	-296.36555224651624	2756.4428308684787	818.786384160299	-306.79298439151063	2770.3286238334213	879.4794262018247	-238.96245961654955	2761.6999407556355	855.0897047356377	-256.48673198256995	2758.251611492721	836.041661363871	-273.6110028191134	2758.9777814429217	823.3532405797325	-286.7736390006578	2761.506403962645	815.1428343873953	-296.48649568806024	2772.9358691750567	874.7729651026862	-236.22701116257207	2766.477023276933	849.5788393789193	-250.53876157323333	2764.2642185727	833.110743914647	-263.6074217379682	2765.0592080976853	823.2679612731836	-272.89686367610784	2767.451852961905	815.6565894560437	-281.3216387956595
